<?xml version="1.0" standalone="no"?>
<!DOCTYPE svg PUBLIC "-//W3C//DTD SVG 20010904//EN"
 "http://www.w3.org/TR/2001/REC-SVG-20010904/DTD/svg10.dtd">
<svg version="1.0" xmlns="http://www.w3.org/2000/svg"
 width="200.000000pt" height="200.000000pt" viewBox="0 0 200.000000 200.000000"
 preserveAspectRatio="xMidYMid meet">

<g transform="translate(0.000000,200.000000) scale(0.100000,-0.100000)"
fill="#000000" stroke="none">
<path d="M398 1173 c-62 -65 -52 -91 11 -29 l47 46 42 -43 c39 -40 42 -45 26
-58 -15 -12 -21 -9 -51 26 l-34 39 -31 -31 -32 -32 19 -41 c30 -66 36 -66 106
-12 34 26 64 53 66 59 5 13 -94 123 -111 123 -6 0 -32 -21 -58 -47z"/>
<path d="M1237 1026 c4 -21 2 -23 -21 -19 -33 7 -55 -33 -40 -75 8 -23 15 -27
53 -29 32 -1 40 2 32 10 -6 6 -11 39 -11 74 0 35 -4 63 -9 63 -4 0 -6 -11 -4
-24z m1 -62 c2 -19 -3 -36 -14 -44 -14 -12 -18 -12 -30 5 -17 23 -18 47 -2 63
21 21 43 9 46 -24z"/>
<path d="M1297 1043 c-15 -14 -6 -41 23 -66 32 -29 34 -35 21 -55 -12 -19 -46
-10 -45 11 1 9 -2 17 -7 17 -5 0 -9 -9 -9 -20 0 -24 44 -38 65 -20 24 20 17
52 -17 81 -27 22 -31 30 -20 41 11 11 14 10 22 -2 5 -8 12 -11 15 -8 4 4 4 11
0 17 -7 12 -38 15 -48 4z"/>
<path d="M811 1028 c-1 -9 -7 -19 -13 -21 -10 -4 -10 -6 0 -6 8 -1 12 -17 12
-45 0 -47 14 -67 33 -46 9 10 8 12 -5 7 -15 -5 -18 0 -18 38 0 29 4 45 13 45
8 0 9 3 1 8 -6 4 -14 14 -17 22 -4 12 -6 12 -6 -2z"/>
<path d="M280 1020 c0 -5 5 -10 11 -10 5 0 7 5 4 10 -3 6 -8 10 -11 10 -2 0
-4 -4 -4 -10z"/>
<path d="M310 1004 c0 -13 48 -59 55 -52 3 2 -9 17 -25 33 -17 16 -30 24 -30
19z"/>
<path d="M570 981 c0 -56 15 -79 52 -78 l33 1 0 53 c0 29 -5 53 -10 53 -6 0
-9 -16 -7 -38 3 -26 -1 -42 -13 -52 -24 -20 -38 1 -33 49 2 29 0 41 -9 41 -8
0 -13 -12 -13 -29z"/>
<path d="M685 954 c0 -41 4 -54 15 -54 11 0 15 12 15 47 0 43 3 48 24 51 22 4
23 1 20 -47 -3 -34 0 -51 8 -51 7 0 9 14 6 43 -7 64 -9 66 -50 65 l-38 0 0
-54z"/>
<path d="M865 999 c-4 -6 -1 -15 6 -20 8 -5 9 -9 3 -9 -18 0 -25 -29 -14 -50
8 -14 20 -19 49 -17 25 1 37 5 33 12 -3 5 -9 28 -12 50 -4 34 -9 40 -32 43
-14 2 -29 -2 -33 -9z m52 -16 c3 -7 -3 -9 -16 -6 -12 3 -21 10 -21 15 0 13 32
6 37 -9z m-9 -22 c19 -11 11 -45 -11 -49 -19 -4 -32 20 -23 43 6 17 15 19 34
6z"/>
<path d="M960 1000 c9 -5 11 -26 8 -69 -3 -44 -1 -61 8 -61 7 0 10 8 7 21 -5
18 -3 20 16 14 30 -9 51 11 51 50 0 41 -15 53 -64 53 -23 0 -34 -3 -26 -8z
m76 -27 c8 -29 -6 -58 -26 -58 -20 0 -34 29 -26 58 4 18 13 27 26 27 13 0 22
-9 26 -27z"/>
<path d="M1071 994 c7 -9 10 -35 7 -69 -3 -40 -1 -55 8 -55 7 0 10 8 7 19 -4
16 -1 19 15 15 26 -7 52 21 52 55 0 37 -16 49 -63 49 -31 0 -36 -2 -26 -14z
m67 -6 c16 -16 15 -40 -2 -63 -12 -16 -16 -17 -30 -6 -16 13 -22 62 -9 74 10
11 28 8 41 -5z"/>
<path d="M1382 998 c-25 -25 -5 -98 28 -98 17 0 40 12 40 21 0 5 -9 4 -21 -3
-17 -11 -22 -10 -35 6 -27 38 -7 84 31 69 13 -4 16 -3 11 5 -9 15 -39 15 -54
0z"/>
<path d="M1465 955 c0 -30 5 -55 10 -55 6 0 9 21 6 51 -3 52 -3 52 24 45 17
-4 24 -3 20 4 -3 5 -18 10 -33 10 -26 0 -27 -2 -27 -55z"/>
<path d="M1545 999 c-4 -6 -1 -15 6 -20 9 -6 10 -9 2 -9 -17 0 -27 -39 -13
-55 13 -16 92 -17 82 0 -3 5 -9 28 -12 50 -4 34 -9 40 -32 43 -14 2 -29 -2
-33 -9z m52 -16 c3 -7 -3 -9 -16 -6 -12 3 -21 10 -21 15 0 13 32 6 37 -9z m-9
-22 c19 -11 11 -45 -11 -49 -19 -4 -32 20 -23 43 6 17 15 19 34 6z"/>
<path d="M1640 1000 c9 -5 11 -26 8 -69 -3 -44 -1 -61 8 -61 7 0 10 8 7 21 -5
17 -2 19 20 14 29 -8 47 15 47 58 0 33 -17 45 -64 45 -23 0 -34 -3 -26 -8z
m74 -16 c17 -44 -10 -88 -39 -64 -15 13 -21 61 -8 73 12 13 41 7 47 -9z"/>
<path d="M1749 986 c-16 -35 -4 -74 26 -82 25 -6 45 1 45 17 0 5 -9 4 -21 -3
-17 -11 -22 -10 -35 7 -20 27 -13 39 25 43 41 4 40 35 -2 40 -21 3 -29 -2 -38
-22z m56 4 c4 -6 -5 -10 -20 -10 -15 0 -24 4 -20 10 3 6 12 10 20 10 8 0 17
-4 20 -10z"/>
<path d="M1835 955 c0 -33 4 -55 11 -55 7 0 9 18 6 51 l-5 52 27 -7 c18 -4 25
-3 21 4 -3 5 -18 10 -33 10 -26 0 -27 -2 -27 -55z"/>
<path d="M219 964 c-18 -20 -49 -43 -66 -50 -18 -8 -33 -17 -33 -20 0 -13 73
-94 85 -94 6 0 17 11 23 24 6 13 33 43 61 67 l50 43 -21 23 -21 22 -54 -49
c-30 -28 -59 -50 -65 -50 -5 0 15 23 46 51 31 28 53 55 50 60 -9 15 -19 10
-55 -27z"/>
</g>
</svg>
